<svg xmlns="http://www.w3.org/2000/svg" width="1080" height="1920" viewBox="0 0 1080 1920" role="img" aria-labelledby="title desc">
<title id="title">深空蓝 9:16 口播视频底图</title>
<desc id="desc">1080×1920 可编辑矢量背景，不含文字与人物。</desc>
<defs>
<linearGradient id="bg" x1="0" y1="0" x2="1" y2="1"><stop stop-color="#0B132B"/><stop offset="0.55" stop-color="#081A32"/><stop offset="1" stop-color="#0B132B"/></linearGradient>
<radialGradient id="glow" cx="0.12" cy="0.28" r="0.78"><stop stop-color="#1E3A8A" stop-opacity="0.58"/><stop offset="1" stop-color="#1E3A8A" stop-opacity="0"/></radialGradient>
<pattern id="dots" width="28" height="28" patternUnits="userSpaceOnUse"><circle cx="2" cy="2" r="1.5" fill="#60A5FA" fill-opacity="0.18"/></pattern>
<linearGradient id="beam" x1="0" y1="0" x2="1" y2="0"><stop stop-color="#60A5FA" stop-opacity="0.52"/><stop offset="1" stop-color="#60A5FA" stop-opacity="0"/></linearGradient>
</defs>

<rect width="1080" height="1920" fill="url(#bg)"/>
<rect width="1080" height="1920" fill="url(#glow)"/>
<path d="M0 145L420 0 260 760 0 930Z" fill="#1E3A8A" fill-opacity="0.22"/>
<path d="M0 235L500 34" stroke="url(#beam)" stroke-width="4"/>
<path d="M0 355L440 180" stroke="#60A5FA" stroke-opacity="0.28" stroke-width="2"/>
<path d="M740 70l108 108-108 108-108-108z" fill="#1E3A8A" fill-opacity="0.18"/>
<path d="M820 130l54 54-54 54-54-54z" fill="#60A5FA" fill-opacity="0.08"/>
<rect x="0" y="1290" width="1080" height="630" fill="url(#dots)" opacity="0.82"/>
<path d="M620 1910L1080 1450V1920H620Z" fill="#1E3A8A" fill-opacity="0.12"/>
<path d="M645 1890L1080 1455" stroke="#60A5FA" stroke-opacity="0.22" stroke-width="3"/>
<circle cx="930" cy="1510" r="220" fill="#60A5FA" fill-opacity="0.035"/>

</svg>