<svg xmlns="http://www.w3.org/2000/svg" width="1080" height="1920" viewBox="0 0 1080 1920" role="img" aria-labelledby="title desc">
<title id="title">墨绿金 9:16 口播视频底图</title>
<desc id="desc">1080×1920 可编辑矢量背景，不含文字与人物。</desc>
<defs>
<linearGradient id="bg" x1="0" y1="0" x2="1" y2="1"><stop stop-color="#0F2E2E"/><stop offset="0.56" stop-color="#143B33"/><stop offset="1" stop-color="#0B2524"/></linearGradient>
<radialGradient id="glow" cx="0.85" cy="0.25" r="0.7"><stop stop-color="#1E584E" stop-opacity="0.65"/><stop offset="1" stop-color="#1E584E" stop-opacity="0"/></radialGradient>
<pattern id="lines" width="44" height="44" patternUnits="userSpaceOnUse" patternTransform="rotate(45)"><line x1="0" y1="0" x2="0" y2="44" stroke="#D4AF37" stroke-opacity="0.055" stroke-width="1"/></pattern>
</defs>

<rect width="1080" height="1920" fill="url(#bg)"/>
<rect width="1080" height="1920" fill="url(#glow)"/>
<rect width="1080" height="1920" fill="url(#lines)"/>
<path d="M1080 0H710L1080 390Z" fill="#D4AF37" fill-opacity="0.04"/>
<path d="M1080 52L760 372" stroke="#D4AF37" stroke-opacity="0.62" stroke-width="2"/>
<path d="M1080 142L820 402" stroke="#D4AF37" stroke-opacity="0.24" stroke-width="2"/>
<path d="M0 1570C250 1450 450 1500 650 1630S950 1810 1080 1730V1920H0Z" fill="#1E584E" fill-opacity="0.20"/>
<path d="M0 1640C250 1530 480 1590 670 1710S930 1840 1080 1790" fill="none" stroke="#D4AF37" stroke-opacity="0.28" stroke-width="3"/>
<rect x="72" y="96" width="936" height="1728" rx="34" fill="none" stroke="#D4AF37" stroke-opacity="0.08" stroke-width="2"/>

</svg>