<svg xmlns="http://www.w3.org/2000/svg" width="1080" height="1920" viewBox="0 0 1080 1920" role="img" aria-labelledby="title desc">
<title id="title">暖灰橙 9:16 口播视频底图</title>
<desc id="desc">1080×1920 可编辑矢量背景，不含文字与人物。</desc>
<defs>
<linearGradient id="bg" x1="0" y1="0" x2="1" y2="1"><stop stop-color="#FFFFFF"/><stop offset="0.62" stop-color="#F7F4F1"/><stop offset="1" stop-color="#FFF8EF"/></linearGradient>
<radialGradient id="orangeGlow" cx="0.92" cy="0.12" r="0.45"><stop stop-color="#F2B26C" stop-opacity="0.22"/><stop offset="1" stop-color="#F2B26C" stop-opacity="0"/></radialGradient>
<pattern id="paper" width="18" height="18" patternUnits="userSpaceOnUse"><circle cx="3" cy="4" r="1" fill="#333333" fill-opacity="0.025"/><circle cx="12" cy="13" r="0.8" fill="#FF6A3D" fill-opacity="0.028"/></pattern>
</defs>

<rect width="1080" height="1920" fill="url(#bg)"/>
<rect width="1080" height="1920" fill="url(#orangeGlow)"/>
<rect width="1080" height="1920" fill="url(#paper)"/>
<circle cx="1028" cy="100" r="210" fill="none" stroke="#F2B26C" stroke-opacity="0.55" stroke-width="3"/>
<circle cx="1028" cy="100" r="150" fill="none" stroke="#FF6A3D" stroke-opacity="0.18" stroke-width="2"/>
<path d="M0 1510C180 1420 290 1480 410 1600S700 1820 900 1680 1020 1500 1080 1470V1920H0Z" fill="#F2B26C" fill-opacity="0.10"/>
<path d="M0 1580C210 1480 340 1580 470 1690" fill="none" stroke="#F2B26C" stroke-opacity="0.46" stroke-width="2"/>
<circle cx="916" cy="1550" r="86" fill="#FF6A3D" fill-opacity="0.14"/>
<circle cx="914" cy="1550" r="44" fill="#F2B26C" fill-opacity="0.48"/>
<path d="M76 126L330 126" stroke="#FF6A3D" stroke-opacity="0.22" stroke-width="4"/>

</svg>